<svg width="154" height="139" viewBox="0 0 154 139" fill="none" xmlns="http://www.w3.org/2000/svg">
    <path d="M3 135C177.905 135 -87.9506 2.99999 95 3L3.00001 3L3 135Z" stroke="white" stroke-width="6"/>
    <path d="M15 84H36C45.3888 84 53 91.6112 53 101V104C53 113.389 45.3888 121 36 121H15V84Z" stroke="white"
          stroke-width="6"/>
    <path d="M75.4688 94.7031C76.5312 94.8281 77.4219 94.9219 78.1406 94.9844C78.8906 95.0156 79.5 95.0625 79.9688 95.125C80.5312 95.1875 80.9688 95.2188 81.2812 95.2188C81.625 95.25 82.1406 95.2344 82.8281 95.1719C83.4219 95.1094 84.2188 95.0312 85.2188 94.9375C86.25 94.8438 87.5625 94.7031 89.1562 94.5156C88.4375 95.1406 87.8594 95.75 87.4219 96.3438C87.0156 96.9062 86.7031 97.4062 86.4844 97.8438C86.2031 98.375 86.0312 98.875 85.9688 99.3438C85.8438 100.094 85.7344 101.125 85.6406 102.438C85.5781 103.719 85.5156 105.125 85.4531 106.656C85.3906 108.188 85.3594 109.766 85.3594 111.391C85.3594 113.016 85.375 114.562 85.4062 116.031C85.4688 117.469 85.5625 118.75 85.6875 119.875C85.8438 121 86.0312 121.812 86.25 122.312C86.5625 122.875 86.8906 123.438 87.2344 124C87.5469 124.469 87.9219 124.953 88.3594 125.453C88.7969 125.953 89.2969 126.359 89.8594 126.672C88.0156 126.578 86.5469 126.531 85.4531 126.531H83.7656C83.2656 126.531 82.625 126.562 81.8438 126.625C81.1875 126.688 80.3594 126.75 79.3594 126.812C78.3594 126.875 77.1562 126.969 75.75 127.094C76.4688 126.312 77.0312 125.562 77.4375 124.844C77.8438 124.125 78.1719 123.5 78.4219 122.969C78.7031 122.344 78.8906 121.75 78.9844 121.188C79.1094 120.375 79.2031 119.375 79.2656 118.188C79.3594 116.969 79.4219 115.672 79.4531 114.297C79.4844 112.891 79.4844 111.469 79.4531 110.031C79.4531 108.562 79.4219 107.156 79.3594 105.812C79.2969 104.469 79.2031 103.25 79.0781 102.156C78.9844 101.062 78.8594 100.188 78.7031 99.5312C78.6094 99.125 78.4219 98.6719 78.1406 98.1719C77.8906 97.7344 77.5469 97.2344 77.1094 96.6719C76.7031 96.0781 76.1562 95.4219 75.4688 94.7031ZM89.3906 93.4844C90.3906 93.7344 91.3438 93.9219 92.25 94.0469C93.1562 94.1719 93.9531 94.2656 94.6406 94.3281C95.4531 94.4219 96.2031 94.4531 96.8906 94.4219C97.7656 94.4219 98.8594 94.3438 100.172 94.1875C101.516 94.0312 102.891 93.8906 104.297 93.7656C105.703 93.6094 107.047 93.5156 108.328 93.4844C109.641 93.4219 110.703 93.5 111.516 93.7188C112.328 93.9062 113.156 94.2031 114 94.6094C114.875 94.9844 115.672 95.4688 116.391 96.0625C117.109 96.625 117.703 97.2969 118.172 98.0781C118.641 98.8281 118.906 99.6875 118.969 100.656C118.938 101.875 118.656 103.016 118.125 104.078C117.688 104.984 116.953 105.922 115.922 106.891C114.891 107.828 113.406 108.547 111.469 109.047C112.438 109.172 113.266 109.391 113.953 109.703C114.672 109.984 115.281 110.328 115.781 110.734C116.312 111.109 116.734 111.531 117.047 112C117.391 112.469 117.656 112.938 117.844 113.406C118.312 114.5 118.531 115.719 118.5 117.062C118.312 118.812 117.953 120.203 117.422 121.234C116.922 122.266 116.344 123.062 115.688 123.625C115.031 124.188 114.359 124.578 113.672 124.797C112.984 125.016 112.359 125.188 111.797 125.312C111.234 125.438 110.547 125.5 109.734 125.5C108.922 125.5 108.047 125.484 107.109 125.453C106.203 125.391 105.266 125.344 104.297 125.312C103.328 125.25 102.406 125.25 101.531 125.312C100.812 125.375 99.9375 125.438 98.9062 125.5C98.0312 125.562 96.9375 125.641 95.625 125.734C94.3125 125.797 92.7812 125.875 91.0312 125.969C91.375 125.719 91.6562 125.438 91.875 125.125C92.125 124.781 92.3281 124.484 92.4844 124.234C92.6406 123.922 92.7812 123.625 92.9062 123.344C93 123.094 93.0781 122.406 93.1406 121.281C93.2031 120.156 93.25 118.812 93.2812 117.25C93.3125 115.656 93.3281 113.953 93.3281 112.141C93.3594 110.297 93.3438 108.531 93.2812 106.844C93.25 105.125 93.1875 103.609 93.0938 102.297C93.0312 100.953 92.9375 99.9844 92.8125 99.3906C92.625 98.7344 92.375 98.0625 92.0625 97.375C91.8125 96.7812 91.4531 96.1406 90.9844 95.4531C90.5469 94.7656 90.0156 94.1094 89.3906 93.4844ZM99.2812 98.2656C99.2812 98.3906 99.2969 98.8125 99.3281 99.5312C99.3594 100.156 99.3906 101.125 99.4219 102.438C99.4844 103.719 99.5625 105.547 99.6562 107.922C100.438 108.266 101.203 108.453 101.953 108.484C102.703 108.484 103.375 108.453 103.969 108.391C104.656 108.297 105.312 108.141 105.938 107.922C106.781 107.578 107.438 107.016 107.906 106.234C108.406 105.453 108.734 104.641 108.891 103.797C109.078 102.922 109.125 102.109 109.031 101.359C108.938 100.578 108.734 100.016 108.422 99.6719C107.828 99.1406 107.094 98.7031 106.219 98.3594C105.469 98.0781 104.516 97.8906 103.359 97.7969C102.234 97.6719 100.875 97.8281 99.2812 98.2656ZM99.0469 120.484C100.203 121.078 101.219 121.469 102.094 121.656C102.969 121.844 103.703 121.938 104.297 121.938C104.984 121.938 105.578 121.844 106.078 121.656C106.672 121.375 107.25 121 107.812 120.531C108.406 120.031 108.844 119.453 109.125 118.797C109.438 118.109 109.562 117.359 109.5 116.547C109.438 115.703 109.078 114.781 108.422 113.781C107.828 113.062 107.109 112.5 106.266 112.094C105.516 111.75 104.562 111.531 103.406 111.438C102.281 111.344 100.891 111.609 99.2344 112.234L99.0469 120.484ZM127.547 95.2656C129.109 95.3594 130.422 95.4375 131.484 95.5C132.578 95.5312 133.484 95.5625 134.203 95.5938C135.016 95.625 135.703 95.625 136.266 95.5938C136.828 95.5625 137.594 95.4844 138.562 95.3594C139.375 95.2656 140.453 95.125 141.797 94.9375C143.172 94.7188 144.875 94.4375 146.906 94.0938C146.188 94.8125 145.625 95.4688 145.219 96.0625C144.844 96.625 144.547 97.1094 144.328 97.5156C144.078 98.0156 143.906 98.4375 143.812 98.7812C143.75 99.0938 143.812 99.875 144 101.125C144.188 102.375 144.453 103.859 144.797 105.578C145.141 107.266 145.516 109.078 145.922 111.016C146.328 112.922 146.734 114.719 147.141 116.406C147.547 118.062 147.906 119.484 148.219 120.672C148.562 121.828 148.812 122.516 148.969 122.734C149.438 123.391 149.734 123.828 149.859 124.047C149.984 124.234 150.203 124.406 150.516 124.562C150.641 124.625 150.844 124.719 151.125 124.844C151.375 124.969 151.703 125.125 152.109 125.312C152.547 125.5 153.094 125.719 153.75 125.969C152.531 126.031 151.484 126.078 150.609 126.109C149.734 126.109 149.016 126.125 148.453 126.156C147.797 126.188 147.234 126.219 146.766 126.25C146.297 126.25 145.734 126.281 145.078 126.344C144.516 126.406 143.781 126.469 142.875 126.531C142 126.594 140.969 126.656 139.781 126.719C140.406 126.281 140.906 125.891 141.281 125.547C141.688 125.172 142 124.859 142.219 124.609C142.469 124.297 142.641 124.016 142.734 123.766C142.797 123.484 142.844 123.062 142.875 122.5C142.906 122 142.906 121.344 142.875 120.531C142.844 119.688 142.766 118.594 142.641 117.25L130.312 118.516C130 119.047 129.766 119.516 129.609 119.922C129.453 120.297 129.344 120.625 129.281 120.906C129.188 121.25 129.156 121.531 129.188 121.75C129.25 122 129.359 122.297 129.516 122.641C129.672 122.953 129.891 123.328 130.172 123.766C130.484 124.172 130.938 124.656 131.531 125.219C130.75 125.188 129.953 125.172 129.141 125.172C128.328 125.172 127.578 125.188 126.891 125.219C126.078 125.25 125.281 125.281 124.5 125.312C123.719 125.344 122.828 125.391 121.828 125.453C120.984 125.516 120 125.594 118.875 125.688C117.719 125.75 116.484 125.844 115.172 125.969C115.984 125.594 116.672 125.219 117.234 124.844C117.797 124.438 118.266 124.062 118.641 123.719C119.078 123.344 119.453 122.984 119.766 122.641C119.984 122.328 120.422 121.609 121.078 120.484C121.734 119.328 122.469 117.969 123.281 116.406C124.125 114.844 125 113.172 125.906 111.391C126.844 109.609 127.688 107.938 128.438 106.375C129.188 104.781 129.797 103.406 130.266 102.25C130.734 101.094 130.969 100.344 130.969 100C130.906 99.5938 130.75 99.1406 130.5 98.6406C130.281 98.2031 129.938 97.7031 129.469 97.1406C129.031 96.5781 128.391 95.9531 127.547 95.2656ZM142.078 113.781C141.891 112.688 141.719 111.75 141.562 110.969C141.406 110.156 141.281 109.484 141.188 108.953C141.062 108.328 140.969 107.781 140.906 107.312C140.812 106.875 140.703 106.312 140.578 105.625C140.453 105.031 140.297 104.297 140.109 103.422C139.953 102.516 139.75 101.438 139.5 100.188C137.719 103.75 136.328 106.516 135.328 108.484C134.359 110.422 133.656 111.844 133.219 112.75C132.688 113.812 132.391 114.438 132.328 114.625L142.078 113.781Z"
          fill="white"/>
</svg>
